<?xml version="1.0" encoding="UTF-8"?>
<svg width="22px" height="22px" viewBox="0 0 22 22" version="1.1" xmlns="http://www.w3.org/2000/svg" xmlns:xlink="http://www.w3.org/1999/xlink">
    <!-- Generator: Sketch 42 (36781) - http://www.bohemiancoding.com/sketch -->
    <title>caller</title>
    <desc>Created with Sketch.</desc>
    <defs></defs>
    <g id="Screens" stroke="none" stroke-width="1" fill="none" fill-rule="evenodd">
        <g id="Artboard-2" transform="translate(-476.000000, -127.000000)" fill="#8F8F8F">
            <path d="M496.96548,143.585227 C496.96548,143.853695 496.915846,144.204188 496.816577,144.636719 C496.717308,145.069249 496.613078,145.4098 496.503882,145.658381 C496.295417,146.155542 495.689886,146.682526 494.687271,147.239347 C493.754143,147.746451 492.830957,148 491.917683,148 C491.649657,148 491.386599,147.9826 491.1285,147.947798 C490.870401,147.912997 490.585007,147.850853 490.27231,147.761364 C489.959613,147.671875 489.726335,147.599787 489.572468,147.545099 C489.418601,147.490412 489.143134,147.388495 488.746059,147.239347 C488.348983,147.090198 488.105778,147.00071 488.016436,146.970881 C487.043601,146.622868 486.175012,146.21023 485.410642,145.732955 C484.149927,144.947439 482.839598,143.873586 481.479614,142.511364 C480.119631,141.149141 479.047543,139.836654 478.263319,138.573864 C477.786828,137.808235 477.374869,136.938215 477.027428,135.963778 C476.997647,135.874289 476.908306,135.630684 476.759403,135.232955 C476.6105,134.835225 476.508751,134.559305 476.454153,134.405185 C476.399555,134.251065 476.327586,134.017402 476.238244,133.70419 C476.148902,133.390979 476.08686,133.105115 476.052116,132.846591 C476.017372,132.588067 476,132.324575 476,132.056108 C476,131.141331 476.253132,130.216624 476.759403,129.28196 C477.315309,128.277694 477.841426,127.671166 478.33777,127.462358 C478.585942,127.352982 478.925933,127.24858 479.357753,127.149148 C479.789572,127.049715 480.13949,127 480.407516,127 C480.546492,127 480.650723,127.014915 480.720211,127.044744 C480.898895,127.104404 481.161954,127.482241 481.509395,128.178267 C481.61859,128.367188 481.767491,128.635652 481.956102,128.983665 C482.144713,129.331678 482.318431,129.647371 482.477261,129.930753 C482.636091,130.214135 482.789956,130.480112 482.938859,130.728693 C482.96864,130.768466 483.055499,130.892755 483.199439,131.101562 C483.343378,131.31037 483.450091,131.48686 483.519579,131.631037 C483.589067,131.775214 483.623811,131.916903 483.623811,132.056108 C483.623811,132.254973 483.482355,132.50355 483.199439,132.801847 C482.916522,133.100144 482.608793,133.373578 482.276243,133.622159 C481.943692,133.87074 481.635963,134.134232 481.353047,134.412642 C481.070131,134.691053 480.928675,134.919743 480.928675,135.098722 C480.928675,135.188211 480.953491,135.30007 481.003126,135.434304 C481.05276,135.568538 481.094949,135.670454 481.129693,135.740057 C481.164437,135.809659 481.233924,135.928976 481.338157,136.098011 C481.442389,136.267046 481.499468,136.361506 481.509395,136.381392 C482.263838,137.743615 483.127464,138.911927 484.100299,139.886364 C485.073134,140.8608 486.239526,141.725848 487.599509,142.481534 C487.619363,142.491477 487.713667,142.54865 487.882424,142.653054 C488.051181,142.757458 488.170302,142.827059 488.23979,142.861861 C488.309278,142.896662 488.411027,142.93892 488.54504,142.988636 C488.679053,143.038353 488.790729,143.06321 488.880071,143.06321 C489.058755,143.06321 489.28707,142.921521 489.565023,142.638139 C489.842976,142.354757 490.106034,142.046522 490.354206,141.713423 C490.602379,141.380325 490.875364,141.072089 491.17317,140.788707 C491.470977,140.505325 491.719145,140.363636 491.917683,140.363636 C492.05666,140.363636 492.198116,140.398437 492.342055,140.46804 C492.485995,140.537642 492.662195,140.644531 492.87066,140.788707 C493.079124,140.932884 493.203208,141.019886 493.242916,141.049716 C493.491088,141.198864 493.756628,141.352982 494.039545,141.512074 C494.322461,141.671166 494.637635,141.84517 494.985076,142.034091 C495.332517,142.223012 495.600539,142.372159 495.78915,142.481534 C496.484032,142.829547 496.861248,143.093039 496.920809,143.272017 C496.95059,143.34162 496.96548,143.446022 496.96548,143.585227 Z M487.660277,128.794514 L487.660277,127 C492.809563,127 497,131.199676 497,136.35861 L495.203765,136.35861 C495.203765,132.18818 491.819181,128.794514 487.660277,128.794514 Z M491.250884,137.072766 C491.250884,135.900015 490.795402,134.796869 489.970862,133.971557 C489.145154,133.143905 488.049077,132.687087 486.882926,132.687087 L486.882926,130.893159 C490.282692,130.893159 493.050039,133.665062 493.049455,137.072766 L491.250884,137.072766 Z" id="Combined-Shape"></path>
        </g>
    </g>
</svg>