<?xml version="1.0" encoding="UTF-8"?>
<svg width="34px" height="34px" viewBox="0 0 34 34" version="1.1" xmlns="http://www.w3.org/2000/svg" xmlns:xlink="http://www.w3.org/1999/xlink">
    <!-- Generator: Sketch 42 (36781) - http://www.bohemiancoding.com/sketch -->
    <title>Hepic_small</title>
    <desc>Created with Sketch.</desc>
    <defs></defs>
    <g id="Page-1" stroke="none" stroke-width="1" fill="none" fill-rule="evenodd">
        <g id="Artboard" transform="translate(-1062.000000, -611.000000)">
            <g id="Hepic_small" transform="translate(1062.000000, 611.000000)">
                <circle id="Oval-2" fill="#04BC9E" cx="17" cy="17" r="16"></circle>
                <polygon id="Combined-Shape" fill="#FFFFFF" fill-rule="nonzero" points="14.2606202 14.9630587 14.2606202 10.1715962 11.1455244 10.1715962 11.1455244 23 14.2606202 23 14.2606202 18.2085375 19.9757307 18.2085375 19.9757307 23 23.0908265 23 23.0908265 10.1715962 19.9757307 10.1715962 19.9757307 14.9630587 14.2606202 14.9630587"></polygon>
                <path d="M17,32.0571429 C25.3158304,32.0571429 32.0571429,25.3158304 32.0571429,17 C32.0571429,8.68416962 25.3158304,1.94285714 17,1.94285714 C8.68416962,1.94285714 1.94285714,8.68416962 1.94285714,17 C1.94285714,25.3158304 8.68416962,32.0571429 17,32.0571429 Z M17,34 C7.61115925,34 0,26.3888407 0,17 C0,7.61115925 7.61115925,0 17,0 C26.3888407,0 34,7.61115925 34,17 C34,26.3888407 26.3888407,34 17,34 Z" id="Oval" fill="#FFFFFF" fill-rule="nonzero"></path>
            </g>
        </g>
    </g>
</svg>