<?xml version="1.0" encoding="UTF-8"?>
<svg width="122px" height="37px" viewBox="0 0 122 37" version="1.1" xmlns="http://www.w3.org/2000/svg" xmlns:xlink="http://www.w3.org/1999/xlink">
    <!-- Generator: Sketch 42 (36781) - http://www.bohemiancoding.com/sketch -->
    <title>Shape</title>
    <desc>Created with Sketch.</desc>
    <defs>
        <linearGradient x1="-5.54541207e-05%" y1="50.0002429%" x2="100.000069%" y2="50.0002429%" id="linearGradient-1">
            <stop stop-color="#04CDAA" offset="0%"></stop>
            <stop stop-color="#008377" offset="100%"></stop>
        </linearGradient>
    </defs>
    <g id="Page-1" stroke="none" stroke-width="1" fill="none" fill-rule="evenodd">
        <g id="Artboard" transform="translate(-1131.000000, -609.000000)">
            <g id="Shape" transform="translate(1131.000000, 609.000000)">
                <path d="M32.8632051,30.1019411 C29.3631451,34.4447629 24.1138234,36.9791875 18.5017946,36.9791875 C8.3094783,36.9791875 0.0471513514,28.7012434 0.0471513514,18.4895938 C0.0471513514,8.27803525 8.30955216,0 18.5017946,0 C23.9806136,5.8683217e-16 29.1178838,2.41499591 32.6213917,6.58441955 L95.9549144,8.67866384 C98.768278,5.47078996 102.803658,3.62418304 107.09737,3.62418304 C115.291874,3.62418304 121.934732,10.2797699 121.934549,18.4897589 C121.934549,26.6997224 115.291741,33.3551696 107.09737,33.3551696 C102.673692,33.3551696 98.5277731,31.3961 95.7134923,28.0236351 L32.8632051,30.1019411 Z" id="Path" fill="#8A8B8A" fill-rule="nonzero"></path>
                <path d="M107.09737,5.11079018 C102.853749,5.11079018 99.0752108,7.09640179 96.6292757,10.1883795 L31.8954162,8.04783036 C28.7900216,4.05513393 23.9454676,1.48660714 18.5017946,1.48660714 C9.12906216,1.48660714 1.53093514,9.09902679 1.53093514,18.4895937 C1.53093514,27.8803259 9.12906216,35.4925804 18.5017946,35.4925804 C24.0773595,35.4925804 29.0247892,32.7985179 32.1183135,28.6391562 L96.4113243,26.5131429 C98.8473676,29.7648482 102.727132,31.8685625 107.09737,31.8685625 C114.47227,31.8685625 120.450765,25.878692 120.450765,18.4897589 C120.45093,11.1008259 114.472435,5.11079018 107.09737,5.11079018 Z" fill="url(#linearGradient-1)" fill-rule="nonzero"></path>
                <path d="M107.09737,4.28489732 C114.927672,4.28489732 121.275264,10.6446766 121.275089,18.4897589 C121.275089,26.33482 114.927532,32.6944554 107.09737,32.6944554 C102.726706,32.6944554 98.6857674,30.6982172 96.0176442,27.3525035 L32.536471,29.4516714 C29.1904159,33.7476988 24.0588868,36.3184732 18.5017946,36.3184732 C8.67371574,36.3184732 0.706610811,28.3363691 0.706610811,18.4895937 C0.706610811,8.64292778 8.67377144,0.660714286 18.5017946,0.660714286 C23.9265995,0.660714286 28.9492408,3.11022575 32.3029043,7.23496218 L96.2489076,9.34945932 C98.9214891,6.16666905 102.855257,4.28489732 107.09737,4.28489732 Z M107.09737,5.93668304 C103.221571,5.93668304 99.6396495,7.71252952 97.2753016,10.7013704 L97.017273,11.0275519 L31.4824491,8.86051735 L31.2451978,8.55547638 C28.2030263,4.64406772 23.5453367,2.3125 18.5017946,2.3125 C9.58428999,2.3125 2.35525946,9.5551888 2.35525946,18.4895937 C2.35525946,27.4241056 9.58423181,34.6666875 18.5017946,34.6666875 C23.6687544,34.6666875 28.42766,32.2191701 31.4573232,28.1456722 L31.6944624,27.8268294 L96.8130062,25.6735177 L97.0705989,26.0173602 C99.4236187,29.1582434 103.103429,31.0426696 107.09737,31.0426696 C114.017009,31.0426696 119.626441,25.4225639 119.626441,18.4897405 C119.626595,11.5569121 114.017136,5.93668304 107.09737,5.93668304 Z" fill="#FFFFFF" fill-rule="nonzero"></path>
                <path d="M112.943974,14.4224643 C111.820182,12.9465607 110.083684,12 108.134847,12 C104.746598,12 102,14.8617173 102,18.3919419 C102,21.9220066 104.746751,24.7837238 108.134847,24.7837238 C110.073691,24.7837238 111.802451,23.8467601 112.926744,22.3837513 L110.492557,20.4277754 C109.930147,21.1334765 109.081986,21.5835927 108.134847,21.5835927 C106.445637,21.5835927 105.07157,20.151854 105.07157,18.3919419 C105.07157,16.6320298 106.44579,15.2001311 108.134847,15.2001311 C109.114146,15.2001311 109.987546,15.6812995 110.548745,16.4286052 L112.943974,14.4224643 Z" id="Combined-Shape" fill="#FFFFFF"></path>
                <path d="M68.3023744,12 C70.3646655,12 71.6445747,12.3687848 72.373506,12.931047 C73.4757846,13.774272 73.9734732,15.0566067 73.9734732,16.479591 C73.9734732,17.4809629 73.8370009,18.432905 73.5724222,19.1065543 C73.2701985,19.876052 72.8035144,20.3734682 72.0024624,20.8585773 C71.2014103,21.3436865 70.7557758,21.4665677 70.1481147,21.5990071 C69.0127669,21.8464554 67.2804715,21.7109553 67.2804715,21.7109553 L67.2804715,18.7283034 L67.9824778,18.7283034 C68.8357506,18.7283034 69.564682,18.6579785 70.0090814,18.3770157 C70.4179547,18.1135499 70.7557758,17.4986282 70.7557758,16.7783875 C70.7557758,16.0933092 70.4179547,15.5487123 69.9735553,15.2677494 C69.6002081,15.0394461 69.0668319,14.9164618 68.6045079,14.9164618 L67.3601248,14.9164618 L67.3601248,25 L64,25 L64,12 L68.3023744,12 Z" fill="#FFFFFF" fill-rule="nonzero"></path>
                <polygon id="Combined-Shape" fill="#FFFFFF" fill-rule="nonzero" points="15.2610078 16.9620416 15.2610078 12.1699829 12.1455244 12.1699829 12.1455244 24.9999828 15.2610078 24.9999828 15.2610078 20.2079241 20.9768293 20.2079241 20.9768293 24.9999828 24.0923127 24.9999828 24.0923127 12.1699829 20.9768293 12.1699829 20.9768293 16.9620416 15.2610078 16.9620416"></polygon>
                <rect id="Rectangle" fill="#FFFFFF" x="40" y="12" width="3.29999995" height="12.8299999"></rect>
                <rect id="Rectangle-2" fill="#FFFFFF" x="40" y="12" width="9" height="3"></rect>
                <rect id="Rectangle-2" fill="#FFFFFF" x="40" y="17" width="9" height="3"></rect>
                <rect id="Rectangle-2" fill="#FFFFFF" x="40" y="22" width="9" height="3"></rect>
                <polygon id="Rectangle-3" fill="#FFFFFF" points="85 13 89 13 89 24 85 24"></polygon>
            </g>
        </g>
    </g>
</svg>