<?xml version="1.0" encoding="UTF-8"?>
<svg width="122px" height="37px" viewBox="0 0 122 37" version="1.1" xmlns="http://www.w3.org/2000/svg" xmlns:xlink="http://www.w3.org/1999/xlink">
    <!-- Generator: Sketch 42 (36781) - http://www.bohemiancoding.com/sketch -->
    <title>homer_logo</title>
    <desc>Created with Sketch.</desc>
    <defs>
        <linearGradient x1="-5.54541207e-05%" y1="50.0002429%" x2="100.000069%" y2="50.0002429%" id="linearGradient-1">
            <stop stop-color="#E8461E" offset="0%"></stop>
            <stop stop-color="#E5431D" offset="26.33%"></stop>
            <stop stop-color="#DD3B1C" offset="48.36%"></stop>
            <stop stop-color="#D03019" offset="68.83%"></stop>
            <stop stop-color="#BE1F16" offset="88.25%"></stop>
            <stop stop-color="#B00E13" offset="100%"></stop>
        </linearGradient>
    </defs>
    <g id="Page-1" stroke="none" stroke-width="1" fill="none" fill-rule="evenodd">
        <g id="Artboard" transform="translate(-1131.000000, -679.000000)" fill-rule="nonzero">
            <g id="homer_logo" transform="translate(1131.000000, 679.000000)">
                <g id="Shape">
                    <path d="M32.8632051,30.1019411 C29.3631451,34.4447629 24.1138234,36.9791875 18.5017946,36.9791875 C8.3094783,36.9791875 0.0471513514,28.7012434 0.0471513514,18.4895938 C0.0471513514,8.27803525 8.30955216,0 18.5017946,0 C23.9806136,5.8683217e-16 29.1178838,2.41499591 32.6213917,6.58441955 L95.9549144,8.67866384 C98.768278,5.47078996 102.803658,3.62418304 107.09737,3.62418304 C115.291874,3.62418304 121.934732,10.2797699 121.934549,18.4897589 C121.934549,26.6997224 115.291741,33.3551696 107.09737,33.3551696 C102.673692,33.3551696 98.5277731,31.3961 95.7134923,28.0236351 L32.8632051,30.1019411 Z" id="Path" fill="#8A8B8A"></path>
                    <path d="M107.09737,5.11079018 C102.853749,5.11079018 99.0752108,7.09640179 96.6292757,10.1883795 L31.8954162,8.04783036 C28.7900216,4.05513393 23.9454676,1.48660714 18.5017946,1.48660714 C9.12906216,1.48660714 1.53093514,9.09902679 1.53093514,18.4895938 C1.53093514,27.8803259 9.12906216,35.4925804 18.5017946,35.4925804 C24.0773595,35.4925804 29.0247892,32.7985179 32.1183135,28.6391563 L96.4113243,26.5131429 C98.8473676,29.7648482 102.727132,31.8685625 107.09737,31.8685625 C114.47227,31.8685625 120.450765,25.878692 120.450765,18.4897589 C120.45093,11.1008259 114.472435,5.11079018 107.09737,5.11079018 Z" fill="url(#linearGradient-1)"></path>
                    <path d="M107.09737,4.28489732 C114.927672,4.28489732 121.275264,10.6446766 121.275089,18.4897589 C121.275089,26.33482 114.927532,32.6944554 107.09737,32.6944554 C102.726706,32.6944554 98.6857674,30.6982172 96.0176442,27.3525035 L32.536471,29.4516714 C29.1904159,33.7476988 24.0588868,36.3184732 18.5017946,36.3184732 C8.67371574,36.3184732 0.706610811,28.3363691 0.706610811,18.4895937 C0.706610811,8.64292778 8.67377144,0.660714286 18.5017946,0.660714286 C23.9265995,0.660714286 28.9492408,3.11022575 32.3029043,7.23496218 L96.2489076,9.34945932 C98.9214891,6.16666905 102.855257,4.28489732 107.09737,4.28489732 Z M107.09737,5.93668304 C103.221571,5.93668304 99.6396495,7.71252952 97.2753016,10.7013704 L97.017273,11.0275519 L31.4824491,8.86051735 L31.2451978,8.55547638 C28.2030263,4.64406772 23.5453367,2.3125 18.5017946,2.3125 C9.58428999,2.3125 2.35525946,9.5551888 2.35525946,18.4895938 C2.35525946,27.4241056 9.58423181,34.6666875 18.5017946,34.6666875 C23.6687544,34.6666875 28.42766,32.2191701 31.4573232,28.1456722 L31.6944624,27.8268294 L96.8130062,25.6735177 L97.0705989,26.0173602 C99.4236187,29.1582434 103.103429,31.0426696 107.09737,31.0426696 C114.017009,31.0426696 119.626441,25.4225639 119.626441,18.4897405 C119.626595,11.5569121 114.017136,5.93668304 107.09737,5.93668304 Z" fill="#FFFFFF"></path>
                </g>
                <g id="Letters" transform="translate(12.000000, 10.000000)" fill="#FFFFFF">
                    <path d="M91.2901661,2.59997559 L95.3012987,2.59997559 C97.2239866,2.59997559 98.4172545,2.94379611 99.0968421,3.46799694 C100.124504,4.25414132 100.588502,5.44967055 100.588502,6.77632841 C100.588502,7.70991407 100.323231,8.43049414 99.9753076,8.97100762 C99.560991,9.60971071 98.9642065,10.0192524 98.3842838,10.2648833 L100.920166,14.7196492 L97.6881356,14.7196492 L94.4892261,8.87281799 L95.003057,8.87281799 C95.7985689,8.87281799 96.4781565,8.80725368 96.8924731,8.54531012 C97.2736684,8.29967921 97.5886213,7.72638358 97.5886213,7.05489832 C97.5886213,6.41619523 97.2736684,5.90846391 96.8593518,5.64652035 C96.5112777,5.4336716 96.0140075,5.31901247 95.5829797,5.31901247 L94.4228331,5.31901247 L94.4228331,14.7199629 L91.2901661,14.7199629 L91.2901661,2.59997559 L91.2901661,2.59997559 Z" id="Shape"></path>
                    <polygon id="Combined-Shape" points="80.073851 16.0587726 75.7931871 16.2000122 72.4796407 12.887331 77.1682889 8.20006341 72.4797971 3.51295209 75.7936022 0.200012207 80.07426 0.34125789 76.9017374 3.51295209 81.5902293 8.20006341 76.9015811 12.887331"></polygon>
                    <polygon id="Shape" points="48.6116384 2.62817308 52.8931758 2.62817308 55.1496617 9.98863847 57.3927244 2.62817308 61.6716389 2.62817308 61.6716389 14.7249016 58.7333471 14.7249016 58.7333471 7.28679518 56.4691467 14.7249016 53.8098105 14.7249016 51.5500845 7.28679518 51.5500845 14.7249016 48.6116384 14.7249016"></polygon>
                    <path d="M30.3560258,5.44840036 C32.0453893,5.44840036 33.4196097,6.88029904 33.4196097,8.64021115 C33.4196097,10.4001233 32.0452357,11.8318619 30.3560258,11.8318619 C28.6668159,11.8318619 27.2927491,10.4001233 27.2927491,8.64021115 C27.2927491,6.88029904 28.6669695,5.44840036 30.3560258,5.44840036 L30.3560258,5.44840036 Z M30.3560258,2.24826923 C26.967777,2.24826923 24.2211792,5.10998649 24.2211792,8.64021115 C24.2211792,12.1702758 26.9679306,15.0319931 30.3560258,15.0319931 C33.7444282,15.0319931 36.4911796,12.1702758 36.4911796,8.64021115 C36.4911796,5.10998649 33.7445818,2.24826923 30.3560258,2.24826923 L30.3560258,2.24826923 Z" id="o_1_"></path>
                    <polygon id="Combined-Shape" points="3.26062021 6.9630587 3.26062021 2.17159615 0.14552443 2.17159615 0.14552443 15 3.26062021 15 3.26062021 10.2085375 8.97573068 10.2085375 8.97573068 15 12.0908265 15 12.0908265 2.17159615 8.97573068 2.17159615 8.97573068 6.9630587 3.26062021 6.9630587"></polygon>
                </g>
            </g>
        </g>
    </g>
</svg>