<?xml version="1.0" encoding="UTF-8"?>
<svg width="22px" height="22px" viewBox="0 0 22 22" version="1.1" xmlns="http://www.w3.org/2000/svg" xmlns:xlink="http://www.w3.org/1999/xlink">
    <!-- Generator: Sketch 42 (36781) - http://www.bohemiancoding.com/sketch -->
    <title>host2</title>
    <desc>Created with Sketch.</desc>
    <defs></defs>
    <g id="Screens" stroke="none" stroke-width="1" fill="none" fill-rule="evenodd">
        <g id="Artboard-2" transform="translate(-571.000000, -127.000000)" fill="#8F8F8F">
            <path d="M573,139 L587,139 L587,137 L573,137 L573,139 Z M593,135 L593,141 L571,141 L571,135 L593,135 Z M590,139 C590.552285,139 591,138.552285 591,138 C591,137.447715 590.552285,137 590,137 C589.447715,137 589,137.447715 589,138 C589,138.552285 589.447715,139 590,139 Z M573,147 L587,147 L587,145 L573,145 L573,147 Z M593,143 L593,149 L571,149 L571,143 L593,143 Z M590,147 C590.552285,147 591,146.552285 591,146 C591,145.447715 590.552285,145 590,145 C589.447715,145 589,145.447715 589,146 C589,146.552285 589.447715,147 590,147 Z M573,131 L587,131 L587,129 L573,129 L573,131 Z M593,127 L593,133 L571,133 L571,127 L593,127 Z M590,131 C590.552285,131 591,130.552285 591,130 C591,129.447715 590.552285,129 590,129 C589.447715,129 589,129.447715 589,130 C589,130.552285 589.447715,131 590,131 Z" id="Shape"></path>
        </g>
    </g>
</svg>