<?xml version="1.0" encoding="UTF-8"?>
<svg width="22px" height="22px" viewBox="0 0 22 22" version="1.1" xmlns="http://www.w3.org/2000/svg" xmlns:xlink="http://www.w3.org/1999/xlink">
    <!-- Generator: Sketch 42 (36781) - http://www.bohemiancoding.com/sketch -->
    <title>host1</title>
    <desc>Created with Sketch.</desc>
    <defs></defs>
    <g id="Screens" stroke="none" stroke-width="1" fill="none" fill-rule="evenodd">
        <g id="Artboard-2" transform="translate(-541.000000, -127.000000)" fill="#8F8F8F">
            <path d="M550,146 L541,146 L541,148 L550,148 L550,149 L554,149 L554,148 L563,148 L563,146 L554,146 L554,145 L550,145 L550,146 Z M551,141 L553,141 L553,145 L551,145 L551,141 Z M543,139 L557,139 L557,137 L543,137 L543,139 Z M563,135 L563,141 L541,141 L541,135 L563,135 Z M560,139 C560.552285,139 561,138.552285 561,138 C561,137.447715 560.552285,137 560,137 C559.447715,137 559,137.447715 559,138 C559,138.552285 559.447715,139 560,139 Z M543,131 L557,131 L557,129 L543,129 L543,131 Z M563,127 L563,133 L541,133 L541,127 L563,127 Z M560,131 C560.552285,131 561,130.552285 561,130 C561,129.447715 560.552285,129 560,129 C559.447715,129 559,129.447715 559,130 C559,130.552285 559.447715,131 560,131 Z" id="Shape"></path>
        </g>
    </g>
</svg>